# This file uses centimeters as units for non-parametric coordinates.

mtllib Environment Test 1.mtl
g default
v -9.662394 17.062895 10.404922
v 9.662394 17.062895 10.404922
v -9.662394 17.062895 -10.404922
v 9.662394 17.062895 -10.404922
v -9.662394 3.677419 -10.404922
v 9.662394 3.677419 -10.404922
v 9.662394 3.677419 10.404922
v -9.662394 3.677419 10.404922
v -4.869372 0.480010 -4.039402
v -4.869372 0.480010 4.039402
v 4.869372 0.480010 4.039402
v 4.869372 0.480010 -4.039402
v -4.869372 3.339869 -4.039402
v 4.869372 3.339869 -4.039402
v 4.869372 3.339869 4.039402
v -4.869372 3.339869 4.039402
v -2.001488 13.696382 2.155291
v -2.001488 13.696382 -2.155291
v 2.001488 13.696382 -2.155291
v 2.001488 13.696382 2.155291
vt 0.000000 1.000000
vt 0.000000 1.000000
vt 1.000000 0.000000
vt 0.000000 0.000000
vt 0.000000 0.000000
vt 0.000000 0.000000
vt 1.000000 0.000000
vt 1.000000 1.000000
vt 1.000000 0.000000
vt 1.000000 1.000000
vt 0.000000 1.000000
vt 1.000000 1.000000
vt 0.000000 0.000000
vt 1.000000 1.000000
vt 1.000000 0.000000
vt 0.000000 0.000000
vt 1.000000 0.000000
vt 0.000000 0.000000
vt 1.000000 0.000000
vt 1.000000 0.000000
vt 0.000000 1.000000
vt 1.000000 1.000000
vt 1.000000 1.000000
vt 1.000000 1.000000
vt 1.000000 1.000000
vt 0.000000 1.000000
vt 1.000000 1.000000
vt 0.000000 1.000000
vt 0.000000 1.000000
vt 0.000000 1.000000
vt 0.000000 0.000000
vt 1.000000 0.000000
vt 1.000000 1.000000
vt 0.000000 1.000000
vt 0.000000 0.000000
vt 1.000000 0.000000
vt 1.000000 1.000000
vt 0.000000 1.000000
vt 0.000000 0.000000
vt 1.000000 0.000000
vt 1.000000 1.000000
vt 0.000000 1.000000
vt 0.000000 0.000000
vt 0.000000 1.000000
vt 0.000000 0.000000
vt 1.000000 0.000000
vt 0.000000 1.000000
vt 0.000000 0.000000
vt 1.000000 0.000000
vt 0.000000 1.000000
vt 0.000000 0.000000
vt 0.000000 1.000000
vt 0.000000 0.000000
vt 1.000000 0.000000
vt 1.000000 1.000000
vt 0.000000 0.000000
vt 1.000000 0.000000
vt 1.000000 1.000000
vt 1.000000 0.000000
vt 1.000000 1.000000
vt 0.000000 0.000000
vt 0.000000 1.000000
vt 0.000000 0.000000
vt 0.000000 1.000000
vt 0.000000 0.000000
vt 1.000000 0.000000
vt 1.000000 1.000000
vt 0.000000 1.000000
vt 1.000000 0.000000
vt 1.000000 1.000000
vt 1.000000 0.000000
vt 1.000000 1.000000
vn 0.000000 0.000000 -1.000000
vn 0.000000 0.000000 -1.000000
vn 0.000000 0.000000 -1.000000
vn 0.000000 0.000000 -1.000000
vn 0.000000 -1.000000 0.000000
vn 0.000000 -1.000000 0.000000
vn 0.000000 -1.000000 0.000000
vn 0.000000 -1.000000 0.000000
vn 0.000000 0.000000 1.000000
vn 0.000000 0.000000 1.000000
vn 0.000000 0.000000 1.000000
vn 0.000000 0.000000 1.000000
vn 0.000000 1.000000 0.000000
vn 0.000000 1.000000 0.000000
vn 0.000000 1.000000 0.000000
vn 0.000000 1.000000 0.000000
vn -1.000000 0.000000 0.000000
vn -1.000000 0.000000 0.000000
vn -1.000000 0.000000 0.000000
vn -1.000000 0.000000 0.000000
vn 1.000000 0.000000 0.000000
vn 1.000000 0.000000 0.000000
vn 1.000000 0.000000 0.000000
vn 1.000000 0.000000 0.000000
vn 0.000000 0.000000 1.000000
vn 0.000000 0.000000 1.000000
vn 0.000000 0.000000 1.000000
vn 0.000000 0.000000 1.000000
vn -1.000000 0.000000 0.000000
vn -1.000000 0.000000 0.000000
vn -1.000000 0.000000 0.000000
vn -1.000000 0.000000 0.000000
vn 0.000000 0.000000 -1.000000
vn 0.000000 0.000000 -1.000000
vn 0.000000 0.000000 -1.000000
vn 0.000000 0.000000 -1.000000
vn 1.000000 0.000000 0.000000
vn 1.000000 0.000000 0.000000
vn 1.000000 0.000000 0.000000
vn 1.000000 0.000000 0.000000
vn 0.000000 0.998597 0.052953
vn 0.000000 0.998597 0.052953
vn 0.000000 0.998597 0.052953
vn 0.000000 0.998597 0.052953
vn -0.070251 0.997529 0.000000
vn -0.070251 0.997529 0.000000
vn -0.070251 0.997529 0.000000
vn -0.070251 0.997529 0.000000
vn 0.000000 0.998597 -0.052953
vn 0.000000 0.998597 -0.052953
vn 0.000000 0.998597 -0.052953
vn 0.000000 0.998597 -0.052953
vn 0.070251 0.997529 0.000000
vn 0.070251 0.997529 0.000000
vn 0.070251 0.997529 0.000000
vn 0.070251 0.997529 0.000000
vn -0.402310 -0.915504 0.000000
vn -0.402310 -0.915504 0.000000
vn -0.402310 -0.915504 0.000000
vn -0.402310 -0.915504 0.000000
vn 0.000000 -0.925874 -0.377831
vn 0.000000 -0.925874 -0.377831
vn 0.000000 -0.925874 -0.377831
vn 0.000000 -0.925874 -0.377831
vn 0.402310 -0.915504 0.000000
vn 0.402310 -0.915504 0.000000
vn 0.402310 -0.915504 0.000000
vn 0.402310 -0.915504 0.000000
vn 0.000000 -0.925874 0.377831
vn 0.000000 -0.925874 0.377831
vn 0.000000 -0.925874 0.377831
vn 0.000000 -0.925874 0.377831
s off
g pCube1
usemtl lambert2SG
f 8/31/1 1/32/2 2/33/3 7/34/4
f 17/35/5 18/36/6 19/37/7 20/38/8
f 3/39/9 5/40/10 6/41/11 4/42/12
f 9/43/13 10/9/14 11/10/15 12/44/16
f 7/45/17 2/46/18 4/12/19 6/47/20
f 8/48/21 5/49/22 3/14/23 1/50/24
f 13/51/25 9/7/26 12/8/27 14/52/28
f 11/53/29 15/54/30 14/55/31 12/11/32
f 10/56/33 16/57/34 15/58/35 11/2/36
f 9/13/37 13/59/38 16/60/39 10/1/40
f 6/18/41 5/15/42 13/22/43 14/21/44
f 7/61/45 6/17/46 14/24/47 15/62/48
f 8/63/49 7/19/50 15/23/51 16/64/52
f 5/16/53 8/20/54 16/25/55 13/26/56
f 1/65/57 3/66/58 18/67/59 17/68/60
f 3/5/61 4/69/62 19/70/63 18/28/64
f 4/6/65 2/71/66 20/72/67 19/29/68
f 2/4/69 1/3/70 17/27/71 20/30/72
